<svg xmlns="http://www.w3.org/2000/svg"
  viewBox="0 0 100 100" enable-background="new 0 0 100 100" preserveAspectRatio="xMaxYMid meet">
  <g> 
    <polygon points="0,0 3,0 8,100 0,100" fill="#fff" stroke-width="0"></polygon>
  </g>
  <!-- Zenika logo -->
  <g transform="translate(1.00000,99.000000) scale(0.0100000,-0.0100000)" fill="#af1e3a" stroke="none">
    <path d="M466 635 c-16 -13 -66 -42 -110 -66 l-81 -42 -65 40 c-87 53 -128 67 -173 59 -59 -11 -47 -28 29 -41 48 -8 103 -33 172 -78 l64 -42 -127 -5 c-106 -4 -130 -8 -139 -22 -15 -25 -7 -28 59 -19 74 11 342 14 332 5 -3 -4 -84 -36 -179 -71 -95 -35 -183 -68 -195 -73 -25 -10 -28 -29 -23 -140 2 -64 20 -97 56 -106 35 -9 38 -2 15 42 -27 52 -40 154 -19 154 28 0 194 -89 288 -154 52 -36 102 -66 111 -66 32 0 41 26 34 96 -7 61 -6 67 9 61 10 -4 27 -2 39 4 20 11 20 12 2 25 -10 8 -31 14 -47 14 -23 0 -28 4 -28 24 0 34 -10 56 -25 56 -10 0 -12 -10 -8 -37 5 -30 4 -35 -10 -30 -15 6 -211 34 -272 39 -23 2 9 18 132 66 90 35 173 72 185 81 l22 18 -21 11 c-12 7 -47 15 -79 18 -33 4 -67 13 -78 20 -17 11 -15 14 25 34 93 47 179 103 179 116 0 11 -30 35 -42 34 -2 -1 -16 -11 -32 -25z m-191 -410 c22 -3 73 -13 113 -21 l72 -16 0 -64 c0 -35 -4 -64 -8 -64 -5 0 -19 11 -32 25 -25 27 -140 105 -156 105 -5 1 -22 12 -39 26 -23 20 -25 25 -10 21 11 -3 38 -8 60 -12z"/>
  </g>
</svg>